<?xml version="1.0" encoding="UTF-8"?>
<svg id="Layer_1" data-name="Layer 1" xmlns="http://www.w3.org/2000/svg" xmlns:xlink="http://www.w3.org/1999/xlink" viewBox="0 0 2036 1005">
  <defs>
    <style>
      .cls-1 {
        fill: #fff;
      }

      .cls-2 {
        fill: url(#Degradado_sin_nombre_6);
      }

      .cls-3 {
        fill: #4b218f;
      }

      .cls-4 {
        clip-path: url(#clippath-2);
      }

      .cls-5 {
        fill: #5e30a1;
      }

      .cls-6 {
        fill: #a657e6;
      }

      .cls-7 {
        clip-path: url(#clippath-1);
      }

      .cls-8 {
        clip-path: url(#clippath-4);
      }

      .cls-9 {
        fill: url(#Degradado_sin_nombre_3);
      }

      .cls-10 {
        fill: #793acf;
      }

      .cls-11 {
        fill: url(#Degradado_sin_nombre_2);
      }

      .cls-12 {
        clip-path: url(#clippath);
      }

      .cls-13 {
        fill: url(#Degradado_sin_nombre_5);
      }

      .cls-14 {
        fill: none;
      }

      .cls-15 {
        clip-path: url(#clippath-3);
      }

      .cls-16 {
        fill: url(#Degradado_sin_nombre_4);
      }
    </style>
    <linearGradient id="Degradado_sin_nombre_6" data-name="Degradado sin nombre 6" x1="1028.9" y1="1046.5" x2="1028.9" y2="-185.45" gradientUnits="userSpaceOnUse">
      <stop offset=".05" stop-color="#fed7ab"/>
      <stop offset=".32" stop-color="#f9c8c6"/>
      <stop offset=".79" stop-color="#f0abfe"/>
    </linearGradient>
    <clipPath id="clippath">
      <rect class="cls-14" x="-.49" y="-189.63" width="2058.76" height="1314.63"/>
    </clipPath>
    <linearGradient id="Degradado_sin_nombre_5" data-name="Degradado sin nombre 5" x1="1023.12" y1="457.29" x2="1023.12" y2="832.21" gradientUnits="userSpaceOnUse">
      <stop offset=".06" stop-color="#bc69ff"/>
      <stop offset="1" stop-color="#a449ed"/>
    </linearGradient>
    <clipPath id="clippath-1">
      <path class="cls-6" d="m1203.06,525.74s-272.94-180.23-281.61-187.16c-8.66-6.93-21.66-7.8-21.66-7.8l-67.59,68.45,97.05-28.59,38.99,74.52,3.47-56.32,231.35,136.9Z"/>
    </clipPath>
    <clipPath id="clippath-2">
      <polygon class="cls-6" points="783.97 418.01 906.43 550.87 825.56 587.84 855.6 546.25 819.79 545.09 847.51 521.99 783.97 418.01"/>
    </clipPath>
    <clipPath id="clippath-3">
      <polygon class="cls-6" points="1060.09 457.29 1177.93 521.41 1110.35 538.74 1060.09 457.29"/>
    </clipPath>
    <clipPath id="clippath-4">
      <path class="cls-6" d="m545.4,378.15s56.61-37.55,98.2-34.66l-12.13,21.95,31.19,24.26-117.26-11.55Z"/>
    </clipPath>
    <linearGradient id="Degradado_sin_nombre_4" data-name="Degradado sin nombre 4" x1="981.89" y1="503.5" x2="981.89" y2="896.55" gradientUnits="userSpaceOnUse">
      <stop offset=".02" stop-color="#a05dfb"/>
      <stop offset="1" stop-color="#833fe0"/>
    </linearGradient>
    <linearGradient id="Degradado_sin_nombre_2" data-name="Degradado sin nombre 2" x1="1094.26" y1="600.55" x2="1094.26" y2="1021.24" gradientUnits="userSpaceOnUse">
      <stop offset="0" stop-color="#7947c4"/>
      <stop offset="1" stop-color="#6b39b3"/>
    </linearGradient>
    <linearGradient id="Degradado_sin_nombre_3" data-name="Degradado sin nombre 3" x1="1013.3" y1="807.35" x2="1013.3" y2="1073.5" gradientUnits="userSpaceOnUse">
      <stop offset=".16" stop-color="#5a309c"/>
      <stop offset=".65" stop-color="#451f80"/>
      <stop offset="1" stop-color="#35126b"/>
    </linearGradient>
  </defs>
  <rect class="cls-2" x="-.49" y="-189.63" width="2058.76" height="1314.63"/>
  <g>
    <path class="cls-1" d="m1791.02,236.33l.66-5.74c-2.12-10.4-8.41-19.88-17.15-25.88-8.75-6-19.79-8.1-30.25-6.33-4.26-14.07-16.34-24.93-30.1-30.1-13.76-5.17-29.02-5.19-43.5-2.68-6.55,1.14-12.29,3.07-17.53,7.16.53-9.85-7.25-18.68-16.42-22.3-9.17-3.62-19.42-3.08-29.21-1.91-6.24.75-12.56,1.76-18.22,4.48-5.67,2.72-10.96,7.31-12.77,13.32-5.24-4.22-12.46-4.96-19.18-4.63-11.28.56-22.67,3.8-31.58,10.74-8.91,6.94-13.5,18.11-13.16,29.4-12.42-2.81-26.05.3-36.03,8.21-8.16,6.46-13.74,16.03-15.56,26.26h330.03Z"/>
    <path class="cls-1" d="m1614.02,490.87c-4.15-17.81-9.34-36.76-23.68-47.99-15.51-12.15-37.75-11.65-56.47-5.49-1.87.61-2.5,2.01-2.77,3.74.58-13.09-7.63-26.31-19.83-31.25-4.42-1.79-9.19-2.56-13.94-2.99-19.81-1.78-40.96,2.83-55.61,16.27-6.24,5.73-10.59,14.07-9.45,22.46-18.64-8.88-42.03-8.37-59.05,3.31-13.51,9.27-21.84,25.8-21.27,41.95h262.07Z"/>
    <path class="cls-1" d="m563.19,296.77l-2.64-9.55c-46.83-28.78-99.45-49.31-154.21-54.11-54.76-4.8-112.51,5-158.05,35.79-17.75-10.22-39.57-9.81-59.89-7.22-10.81,1.38-21.85,3.4-31.12,9.15-9.88,6.13-16.72,15.83-22.71,25.94h428.62Z"/>
    <circle class="cls-1" cx="1846.59" cy="100.57" r="76.63" transform="translate(105.57 724.16) rotate(-22.82)"/>
  </g>
  <g class="cls-12">
    <g>
      <path class="cls-13" d="m1489.96,707.39c-154.44-87.76-529.23-348.97-570.03-370.13-47.24-24.49-183.69,7-211.69,8.75-27.99,1.75-96.22-27.99-169.7,31.49C465.07,436.98-16.03,720.4-16.03,720.4c13.81,5.73-7.56,125.97-7.56,125.97h2093.42v-138.98h-579.87Z"/>
      <g>
        <g>
          <path class="cls-6" d="m1203.06,525.74s-272.94-180.23-281.61-187.16c-8.66-6.93-21.66-7.8-21.66-7.8l-67.59,68.45,97.05-28.59,38.99,74.52,3.47-56.32,231.35,136.9Z"/>
          <g class="cls-7">
            <rect class="cls-6" x="832.2" y="330.78" width="23.18" height="194.96"/>
            <rect class="cls-6" x="855.38" y="330.78" width="10.87" height="194.96"/>
            <rect class="cls-6" x="866.25" y="330.78" width="10.86" height="194.96"/>
            <rect class="cls-6" x="877.11" y="330.78" width="10.86" height="194.96"/>
            <rect class="cls-6" x="887.98" y="330.78" width="10.87" height="194.96"/>
            <rect class="cls-6" x="898.84" y="330.78" width="10.86" height="194.96"/>
            <rect class="cls-6" x="909.71" y="330.78" width="10.87" height="194.96"/>
            <rect class="cls-6" x="920.57" y="330.78" width="10.87" height="194.96"/>
            <rect class="cls-6" x="931.44" y="330.78" width="10.86" height="194.96"/>
            <rect class="cls-6" x="942.3" y="330.78" width="10.87" height="194.96"/>
            <rect class="cls-6" x="953.17" y="330.78" width="10.87" height="194.96"/>
            <rect class="cls-6" x="964.03" y="330.78" width="10.86" height="194.96"/>
            <rect class="cls-6" x="974.9" y="330.78" width="10.87" height="194.96"/>
            <rect class="cls-6" x="985.76" y="330.78" width="10.87" height="194.96"/>
            <rect class="cls-6" x="996.63" y="330.78" width="10.86" height="194.96"/>
            <rect class="cls-6" x="1007.49" y="330.78" width="10.87" height="194.96"/>
            <rect class="cls-6" x="1018.36" y="330.78" width="10.86" height="194.96"/>
            <rect class="cls-6" x="1029.22" y="330.78" width="10.86" height="194.96"/>
            <rect class="cls-6" x="1040.09" y="330.78" width="10.87" height="194.96"/>
            <rect class="cls-6" x="1050.95" y="330.78" width="10.86" height="194.96"/>
            <rect class="cls-6" x="1061.82" y="330.78" width="10.86" height="194.96"/>
            <rect class="cls-6" x="1072.68" y="330.78" width="10.87" height="194.96"/>
            <rect class="cls-6" x="1083.55" y="330.78" width="10.86" height="194.96"/>
            <rect class="cls-6" x="1094.41" y="330.78" width="10.87" height="194.96"/>
            <rect class="cls-6" x="1105.28" y="330.78" width="10.87" height="194.96"/>
            <rect class="cls-6" x="1116.14" y="330.78" width="10.86" height="194.96"/>
            <rect class="cls-6" x="1127.01" y="330.78" width="10.87" height="194.96"/>
            <rect class="cls-6" x="1137.87" y="330.78" width="10.87" height="194.96"/>
            <rect class="cls-6" x="1148.74" y="330.78" width="10.86" height="194.96"/>
            <rect class="cls-6" x="1159.6" y="330.78" width="10.87" height="194.96"/>
            <rect class="cls-6" x="1170.46" y="330.78" width="10.87" height="194.96"/>
            <rect class="cls-6" x="1181.33" y="330.78" width="10.86" height="194.96"/>
            <rect class="cls-6" x="1192.19" y="330.78" width="10.87" height="194.96"/>
          </g>
        </g>
        <g>
          <polygon class="cls-6" points="783.97 418.01 906.43 550.87 825.56 587.84 855.6 546.25 819.79 545.09 847.51 521.99 783.97 418.01"/>
          <g class="cls-4">
            <rect class="cls-6" x="783.97" y="418.01" width="7.65" height="169.83"/>
            <rect class="cls-6" x="791.62" y="418.01" width="3.59" height="169.83"/>
            <rect class="cls-6" x="795.21" y="418.01" width="3.59" height="169.83"/>
            <rect class="cls-6" x="798.8" y="418.01" width="3.59" height="169.83"/>
            <rect class="cls-6" x="802.39" y="418.01" width="3.59" height="169.83"/>
            <rect class="cls-6" x="805.98" y="418.01" width="3.59" height="169.83"/>
            <rect class="cls-6" x="809.56" y="418.01" width="3.59" height="169.83"/>
            <rect class="cls-6" x="813.15" y="418.01" width="3.59" height="169.83"/>
            <rect class="cls-6" x="816.74" y="418.01" width="3.59" height="169.83"/>
            <rect class="cls-6" x="820.33" y="418.01" width="3.59" height="169.83"/>
            <rect class="cls-6" x="823.91" y="418.01" width="3.59" height="169.83"/>
            <rect class="cls-6" x="827.5" y="418.01" width="3.59" height="169.83"/>
            <rect class="cls-6" x="831.09" y="418.01" width="3.59" height="169.83"/>
            <rect class="cls-6" x="834.68" y="418.01" width="3.59" height="169.83"/>
            <rect class="cls-6" x="838.27" y="418.01" width="3.59" height="169.83"/>
            <rect class="cls-6" x="841.85" y="418.01" width="3.59" height="169.83"/>
            <rect class="cls-6" x="845.44" y="418.01" width="3.59" height="169.83"/>
            <rect class="cls-6" x="849.03" y="418.01" width="3.59" height="169.83"/>
            <rect class="cls-6" x="852.62" y="418.01" width="3.59" height="169.83"/>
            <rect class="cls-6" x="856.2" y="418.01" width="3.59" height="169.83"/>
            <rect class="cls-6" x="859.79" y="418.01" width="3.59" height="169.83"/>
            <rect class="cls-6" x="863.38" y="418.01" width="3.59" height="169.83"/>
            <rect class="cls-6" x="866.97" y="418.01" width="3.59" height="169.83"/>
            <rect class="cls-6" x="870.56" y="418.01" width="3.59" height="169.83"/>
            <rect class="cls-6" x="874.14" y="418.01" width="3.59" height="169.83"/>
            <rect class="cls-6" x="877.73" y="418.01" width="3.59" height="169.83"/>
            <rect class="cls-6" x="881.32" y="418.01" width="3.59" height="169.83"/>
            <rect class="cls-6" x="884.91" y="418.01" width="3.59" height="169.83"/>
            <rect class="cls-6" x="888.49" y="418.01" width="3.59" height="169.83"/>
            <rect class="cls-6" x="892.08" y="418.01" width="3.59" height="169.83"/>
            <rect class="cls-6" x="895.67" y="418.01" width="3.59" height="169.83"/>
            <rect class="cls-6" x="899.26" y="418.01" width="3.59" height="169.83"/>
            <rect class="cls-6" x="902.85" y="418.01" width="3.59" height="169.83"/>
          </g>
        </g>
        <g>
          <polygon class="cls-6" points="1060.09 457.29 1177.93 521.41 1110.35 538.74 1060.09 457.29"/>
          <g class="cls-15">
            <rect class="cls-6" x="1060.09" y="457.29" width="7.37" height="81.45"/>
            <rect class="cls-6" x="1067.45" y="457.29" width="3.45" height="81.45"/>
            <rect class="cls-6" x="1070.91" y="457.29" width="3.45" height="81.45"/>
            <rect class="cls-6" x="1074.36" y="457.29" width="3.45" height="81.45"/>
            <rect class="cls-6" x="1077.81" y="457.29" width="3.45" height="81.45"/>
            <rect class="cls-6" x="1081.26" y="457.29" width="3.45" height="81.45"/>
            <rect class="cls-6" x="1084.72" y="457.29" width="3.45" height="81.45"/>
            <rect class="cls-6" x="1088.17" y="457.29" width="3.45" height="81.45"/>
            <rect class="cls-6" x="1091.62" y="457.29" width="3.45" height="81.45"/>
            <rect class="cls-6" x="1095.07" y="457.29" width="3.45" height="81.45"/>
            <rect class="cls-6" x="1098.53" y="457.29" width="3.45" height="81.45"/>
            <rect class="cls-6" x="1101.98" y="457.29" width="3.45" height="81.45"/>
            <rect class="cls-6" x="1105.43" y="457.29" width="3.45" height="81.45"/>
            <rect class="cls-6" x="1108.88" y="457.29" width="3.45" height="81.45"/>
            <rect class="cls-6" x="1112.34" y="457.29" width="3.45" height="81.45"/>
            <rect class="cls-6" x="1115.79" y="457.29" width="3.45" height="81.45"/>
            <rect class="cls-6" x="1119.24" y="457.29" width="3.45" height="81.45"/>
            <rect class="cls-6" x="1122.69" y="457.29" width="3.45" height="81.45"/>
            <rect class="cls-6" x="1126.15" y="457.29" width="3.45" height="81.45"/>
            <rect class="cls-6" x="1129.6" y="457.29" width="3.45" height="81.45"/>
            <rect class="cls-6" x="1133.05" y="457.29" width="3.45" height="81.45"/>
            <rect class="cls-6" x="1136.5" y="457.29" width="3.45" height="81.45"/>
            <rect class="cls-6" x="1139.96" y="457.29" width="3.45" height="81.45"/>
            <rect class="cls-6" x="1143.41" y="457.29" width="3.45" height="81.45"/>
            <rect class="cls-6" x="1146.86" y="457.29" width="3.45" height="81.45"/>
            <rect class="cls-6" x="1150.31" y="457.29" width="3.45" height="81.45"/>
            <rect class="cls-6" x="1153.76" y="457.29" width="3.45" height="81.45"/>
            <rect class="cls-6" x="1157.22" y="457.29" width="3.45" height="81.45"/>
            <rect class="cls-6" x="1160.67" y="457.29" width="3.45" height="81.45"/>
            <rect class="cls-6" x="1164.12" y="457.29" width="3.45" height="81.45"/>
            <rect class="cls-6" x="1167.57" y="457.29" width="3.45" height="81.45"/>
            <rect class="cls-6" x="1171.03" y="457.29" width="3.45" height="81.45"/>
            <rect class="cls-6" x="1174.48" y="457.29" width="3.45" height="81.45"/>
          </g>
        </g>
        <g>
          <path class="cls-6" d="m545.4,378.15s56.61-37.55,98.2-34.66l-12.13,21.95,31.19,24.26-117.26-11.55Z"/>
          <g class="cls-8">
            <rect class="cls-6" x="545.4" y="340.6" width="7.33" height="49.1"/>
            <rect class="cls-6" x="552.73" y="340.6" width="3.44" height="49.1"/>
            <rect class="cls-6" x="556.16" y="340.6" width="3.44" height="49.1"/>
            <rect class="cls-6" x="559.6" y="340.6" width="3.44" height="49.1"/>
            <rect class="cls-6" x="563.03" y="340.6" width="3.44" height="49.1"/>
            <rect class="cls-6" x="566.47" y="340.6" width="3.44" height="49.1"/>
            <rect class="cls-6" x="569.91" y="340.6" width="3.44" height="49.1"/>
            <rect class="cls-6" x="573.34" y="340.6" width="3.44" height="49.1"/>
            <rect class="cls-6" x="576.78" y="340.6" width="3.44" height="49.1"/>
            <rect class="cls-6" x="580.21" y="340.6" width="3.44" height="49.1"/>
            <rect class="cls-6" x="583.65" y="340.6" width="3.44" height="49.1"/>
            <rect class="cls-6" x="587.08" y="340.6" width="3.44" height="49.1"/>
            <rect class="cls-6" x="590.52" y="340.6" width="3.44" height="49.1"/>
            <rect class="cls-6" x="593.95" y="340.6" width="3.44" height="49.1"/>
            <rect class="cls-6" x="597.39" y="340.6" width="3.44" height="49.1"/>
            <rect class="cls-6" x="600.82" y="340.6" width="3.44" height="49.1"/>
            <rect class="cls-6" x="604.26" y="340.6" width="3.44" height="49.1"/>
            <rect class="cls-6" x="607.7" y="340.6" width="3.44" height="49.1"/>
            <rect class="cls-6" x="611.13" y="340.6" width="3.44" height="49.1"/>
            <rect class="cls-6" x="614.57" y="340.6" width="3.44" height="49.1"/>
            <rect class="cls-6" x="618" y="340.6" width="3.44" height="49.1"/>
            <rect class="cls-6" x="621.44" y="340.6" width="3.44" height="49.1"/>
            <rect class="cls-6" x="624.87" y="340.6" width="3.44" height="49.1"/>
            <rect class="cls-6" x="628.31" y="340.6" width="3.44" height="49.1"/>
            <rect class="cls-6" x="631.74" y="340.6" width="3.44" height="49.1"/>
            <rect class="cls-6" x="635.18" y="340.6" width="3.44" height="49.1"/>
            <rect class="cls-6" x="638.61" y="340.6" width="3.44" height="49.1"/>
            <rect class="cls-6" x="642.05" y="340.6" width="3.44" height="49.1"/>
            <rect class="cls-6" x="645.49" y="340.6" width="3.44" height="49.1"/>
            <rect class="cls-6" x="648.92" y="340.6" width="3.44" height="49.1"/>
            <rect class="cls-6" x="652.36" y="340.6" width="3.44" height="49.1"/>
            <rect class="cls-6" x="655.79" y="340.6" width="3.44" height="49.1"/>
            <rect class="cls-6" x="659.23" y="340.6" width="3.44" height="49.1"/>
          </g>
        </g>
      </g>
    </g>
    <g>
      <path class="cls-16" d="m1272.51,687.05c1-4.82,3.42-9.35,7-12.73,1.23-1.16,2.7-2.42,2.71-4.11-5.79,1.29-11.96,1.41-17.48,3.6.99-4.82,3.59-9.29,7.29-12.53,1.46-1.28,3.28-2.88,2.79-4.76-10.31,1.5-20.01,8.79-25.93,17.36-.35-6.65-2.48-13.2-6.1-18.79-1.43,5.68-3.99,12.59-5.43,18.28-3.64-7.99-11.92-13.66-20.68-14.16,4.91,4.09,7.97,10.83,8.61,17.19-4-2.73-8.04-5.48-12.52-7.32-4.48-1.84-9.5-2.73-14.21-1.59,5.31,6.52,10.63,13.04,15.94,19.56h-398.55l-13.26-12.97h-38.1c3.56-18.49,19.89-36.04,28.28-44.03h18.72v-13.55h-83.6l-19.09-309.95h6.69l7.43-20.42h7.89v-12.53h-6.54l-8.78-24.14h-5.59l-11.12-32.4-11.12,32.4h-5.59l-8.78,24.14h-6.54v12.53h7.89l7.43,20.42h6.69l-19.09,309.95h-83.6v13.55h18.72c8.39,7.99,24.72,25.54,28.28,44.03h-38.1l-13.26,12.97h-64.48c1.22-6.26,3.41-12.34,6.54-17.9-1.46-1.03-3.48-.27-5.04.59-5.24,2.87-9.78,6.84-13.87,11.19-.01-5.04-.03-10.07-.04-15.11-8.3.61-13.31,12.31-21.2,14.95,1.61-5.15,3.22-10.29,4.83-15.44.2-.65.37-1.46-.14-1.92-.33-.3-.83-.32-1.28-.29-3.48.17-6.91,1.4-9.71,3.48-4.12,3.07-8.05,9.56-13.09,10.59,1.61-6.07,2.74-12.26,3.38-18.5-6.81,3.4-11.44,12.23-12.37,19.79-1.41-9.51-4.02-18.84-7.77-27.7-4.85,8.47-5.66,19.28-6.39,29.01-3.46-5.26-6.93-10.53-10.39-15.79-.35-.53-.74-1.1-1.33-1.33-1.62-.64-2.9,1.49-3.27,3.19-.93,4.34-.63,8.8-.15,13.21-4.45-4.64-10.86-7.33-17.28-7.26,3.74,4.64,6.85,9.79,9.29,15.24H2.03c1.29-3.06,3.17-5.87,5.58-8.14,1.23-1.16,2.7-2.42,2.71-4.11-5.79,1.29-11.96,1.41-17.48,3.6.99-4.82,3.59-9.29,7.29-12.53,1.46-1.28,3.28-2.88,2.79-4.76-10.31,1.5-20.01,8.79-25.92,17.36-.35-6.65-2.48-13.2-6.1-18.79-1.43,5.68-3.99,12.59-5.43,18.28-3.64-7.99-11.92-13.66-20.68-14.16,4.91,4.09,7.97,10.83,8.61,17.19-4-2.73-8.04-5.48-12.52-7.32-4.48-1.84-9.5-2.73-14.21-1.59,4.07,4.99,8.13,9.98,12.2,14.97h-52.43v113.79h2190.89v-113.79h-804.83Z"/>
      <g>
        <g>
          <polygon class="cls-10" points="673.21 273.81 724.33 273.81 720 261.25 677.97 261.25 673.21 273.81"/>
          <polygon class="cls-10" points="723.03 286.16 674.72 286.16 679.11 298.29 718.64 298.29 723.03 286.16"/>
          <polygon class="cls-10" points="709.06 306.63 688.69 306.63 704.83 312.37 715.45 616.72 727.9 616.72 709.06 306.63"/>
          <path class="cls-10" d="m605.19,630.3h187.74s-22.53,20.51-28.02,43.9c0,0,1.65-8.87,1.16-18.12-.91-17.09-25.69-19.15-28.8-2.31-.03.17-.06.34-.09.51l-131.99-23.97Z"/>
          <polygon class="cls-10" points="594.79 673.91 802.74 673.91 815.31 686.69 790.83 677.59 594.79 673.91"/>
        </g>
        <g>
          <path class="cls-10" d="m736.23,726.55c1.64-1.96,4.42-3.07,7.16-2.85,1.38.07,2.75.47,4,1.14.59.31,1.27.85,1.67,1.18.18.15.2.06-.08.05-.27.06-.14.06.14-.19,4.3-3.28,10.46-3.97,14.96-1.46-5.02-.45-9.75.78-13.39,3.53-.21.11-.57.56-1.48.68-.92.06-1.47-.41-1.76-.64-.54-.48-.85-.71-1.32-1.04-.89-.61-1.93-.98-3.02-1.25-2.19-.47-4.62-.29-6.9.84Z"/>
          <path class="cls-10" d="m1070.03,707.52c2.35-1.41,4.97-1.88,7.57-1.96,2.6,0,5.23.38,7.62,1.73-2.65.7-5.1.8-7.58.87-2.49,0-4.94-.03-7.61-.64Z"/>
          <path class="cls-10" d="m1187.94,734.63c1.81-.82,4.27-.5,5.98.97.78.63,1.49,1.31,1.87,1.33.15-.02.13.02.32-.1.18-.12.57-.52.99-.86,3.34-2.67,8.33-3.13,11.66-.84-3.92-.24-7.39.78-10.05,2.87-.34.24-.61.54-1.22.95-.6.43-1.66.63-2.42.33-1.47-.63-1.98-1.55-2.56-2.23-1.01-1.23-2.59-2.21-4.56-2.41Z"/>
          <path class="cls-10" d="m950.96,732.05c.65-.75,1.86-.58,2.7-.47.87.17,1.69.32,2.16.16.42-.14,1.1-.63,1.93-1.11.8-.44,1.65-.8,2.51-1.11,3.45-1.14,7.39-1.14,10.59.55-3.55.36-6.7.87-9.76,1.92-.77.23-1.51.54-2.26.85-.72.22-1.46.84-2.78.91-2.56-.04-3.27-2.01-5.09-1.69Z"/>
          <path class="cls-10" d="m956.98,687.34c8.38-1.02,16.76-1.26,25.14-1.3,8.38.04,16.76.27,25.14,1.3-8.38,1.03-16.76,1.26-25.14,1.3-8.38-.04-16.76-.28-25.14-1.3Z"/>
          <path class="cls-10" d="m817.91,747.13c4.37-.54,8.74-.79,13.11-1,4.37-.24,8.74-.27,13.11-.3,4.37.03,8.74.06,13.11.3,4.37.21,8.74.46,13.11,1-4.37.54-8.74.79-13.11,1-4.37.24-8.74.27-13.11.3-4.37-.03-8.74-.07-13.11-.3-4.37-.21-8.74-.46-13.11-1Z"/>
          <path class="cls-10" d="m645.48,786.99c5.98-1.02,11.97-1.26,17.95-1.3,5.98.04,11.97.27,17.95,1.3-5.98,1.03-11.97,1.26-17.95,1.3-5.98-.04-11.97-.28-17.95-1.3Z"/>
          <path class="cls-10" d="m56.7,689.07c10.34-.54,20.67-.79,31.01-1,10.34-.21,20.67-.19,31.01-.3,10.34.1,20.67.09,31.01.3,10.34.21,20.67.46,31.01,1-10.34.54-20.67.79-31.01,1-10.34.21-20.67.2-31.01.3-10.34-.11-20.67-.09-31.01-.3-10.34-.21-20.67-.46-31.01-1Z"/>
          <path class="cls-10" d="m47.28,752.24c3.27-1.5,7.16-1.83,10.8-.9.91.22,1.81.51,2.68.91.79.24,1.41.68,1.93.54.58-.08,1.51-.37,2.39-.59.88-.22,1.76-.44,2.65-.62,7.12-1.37,14.62-1.15,21.44,1.15-7.16-.26-14.11.03-20.94,1.4-.85.15-1.7.33-2.55.53-.85.17-1.61.48-2.8.57-1.3.12-2.24-.62-3.11-.94-.74-.39-1.5-.73-2.28-1.02-3.16-1.14-6.66-1.56-10.21-1.04Z"/>
          <path class="cls-10" d="m1242.92,769.22c8.19-1.02,16.38-1.26,24.57-1.3,8.19.04,16.38.27,24.57,1.3-8.19,1.03-16.38,1.26-24.57,1.3-8.19-.04-16.38-.28-24.57-1.3Z"/>
        </g>
      </g>
    </g>
    <g>
      <path class="cls-11" d="m1991.09,793.88v-22.55h11.67v-3.45l31.63-10.7c1.2-.15,1.05-1.46-.17-1.46l-14.01.05c3.1-2.64,5.95-5.97,8.02-10.06.53-1.11,1.04-2.21,1.43-3.4.2-.6.4-1.15.58-1.79l.47-1.99c.5-2.65.64-5.3.35-7.82-.29-2.53-.86-4.97-1.84-7.25-.96-2.27-2.13-4.45-3.73-6.38-3.04-3.88-7.55-6.95-12.44-8.07-4.92-1.19-9.7-.4-13.49,1.52-3.79,1.93-6.91,5.05-8.19,8.86-.2.59-.25,1.26-.12,1.91.4,2,2.35,3.3,4.36,2.9l1.15-.23c2.4-.48,4.44-.23,6.11.38,1.67.63,2.8,1.6,3.1,2.56.18.48.29.85.3,1.32.03.41.07.81.01,1.26,0,.82-.23,1.74-.53,2.29-.33.65-.5.43-1.03,1.22-.24.31-.57.63-.91,1.02-.4.36-.82.79-1.34,1.2-1.04.84-2.34,1.71-3.8,2.49-.73.39-1.47.76-2.29,1.11-.85.38-1.78.71-2.74,1.06-3.88,1.36-8.69,2.42-14.08,3.58l-2.05.46c-.35.07-.67.16-1.06.21l-1.41.02c-1.67.09-3.09.23-4.55.37-2.79.28-5.53.58-8.26.94v-31.56h10.35v-5.41l24.22-8.97c1.2-.17,1.05-1.6-.17-1.6h-44.86v-92.65h7.49v-4.77l32.22-14.77c1.2-.2,1.05-1.98-.17-1.98h-13.87c1.3-1.64,2.5-3.42,3.5-5.4.52-1.11,1.04-2.21,1.43-3.4.2-.6.4-1.15.58-1.79l.47-1.99c.5-2.65.64-5.3.35-7.82-.29-2.53-.86-4.97-1.84-7.25-.96-2.27-2.13-4.45-3.73-6.38-3.04-3.88-7.55-6.95-12.44-8.07-4.92-1.19-9.7-.4-13.49,1.52-3.79,1.93-6.91,5.05-8.19,8.86-.2.59-.25,1.26-.12,1.91.4,2,2.35,3.3,4.36,2.9l1.15-.23c2.4-.48,4.44-.23,6.11.38,1.67.63,2.8,1.6,3.1,2.56.18.48.29.85.3,1.32.04.41.07.81.01,1.26,0,.82-.23,1.74-.53,2.29-.33.65-.5.43-1.03,1.22-.24.31-.57.63-.91,1.02-.4.36-.82.79-1.34,1.2-1.04.84-2.34,1.71-3.8,2.49-.73.39-1.47.76-2.29,1.11-.85.38-1.78.71-2.74,1.06-3.88,1.36-8.69,2.42-14.08,3.58l-2.05.46c-.35.07-.67.16-1.06.21l-1.41.02c-1.67.09-3.09.22-4.55.37-2.89.28-5.72.6-8.55.97-5.65.71-11.28,1.5-16.9,2.38-2.81.42-5.62.89-8.42,1.34-.69.12-1.38.23-2.08.34v-35.19h22.06v-9.91l21.53-9.87c1.2-.2,1.05-1.98-.17-1.98h-52.87v-47.32h20.69v-7.12l27.74-12.72c1.2-.2,1.05-1.98-.17-1.98h-22.23c1.29-1.62,2.48-3.4,3.32-5.45.29-.67.51-1.39.74-2.08.2-.77.4-1.57.53-2.36.25-1.57.31-3.14.16-4.65-.24-3.03-1.16-5.87-2.67-8.39-1.51-2.51-3.63-4.72-6.23-6.26-2.59-1.55-5.66-2.29-8.45-2.16-2.8.14-5.31,1.04-7.38,2.43-2.07,1.39-3.7,3.38-4.47,5.61-.16.46-.2.97-.09,1.47.32,1.47,1.77,2.39,3.24,2.07l.81-.18c1.41-.31,2.68-.2,3.76.05,1.08.29,1.98.75,2.51,1.32.97,1.15.75,2.11.71,3.12-.04.49-.21.99-.37,1.3-.07.17-.22.27-.28.34-.04.04-.1.03-.12.07-.08.08-.11.16-.19.25-.5.64-1.45,1.69-2.99,2.69-1.54,1.02-3.25,1.89-5.66,2.68-2.34.81-5.13,1.48-8.23,2.15l-2.37.51c-.82.19-1.58.36-2.6.48-1.85.27-3.55.63-5.25,1.04-2.35.55-4.66,1.24-6.98,1.95v-46.1h17.42v-7.58l26.6-12.19c1.2-.21,1.05-1.98-.17-1.98l-60.75.23h-7.82v-41.74h13.83v-20.23c1.74-2.41,3.29-5.05,4.48-7.96.5-1.16.88-2.41,1.28-3.61.39-1.34.71-2.73.92-4.09.45-2.73.52-5.44.32-8.07-.46-5.24-2.04-10.18-4.67-14.55-2.59-4.36-6.28-8.2-10.81-10.86-4.49-2.7-9.83-3.94-14.67-3.74-4.85.24-9.21,1.8-12.8,4.21-3.57,2.42-6.45,5.82-7.76,9.72-.25.75-.32,1.6-.15,2.44.52,2.56,3.01,4.21,5.56,3.7l1.46-.29c2.49-.5,4.63-.36,6.52.08,1.88.51,3.44,1.29,4.35,2.3.91.94,1.14,1.94,1.25,2.8.09.88.07,1.74-.03,2.62-.1.86-.33,1.71-.64,2.27-.15.28-.34.48-.47.59-.07.06-.15.07-.21.11-.14.14-.19.28-.33.43-.48.57-1.05,1.28-1.91,2.1-.85.82-1.97,1.71-3.28,2.57-2.66,1.77-5.64,3.28-9.81,4.65-4.06,1.39-8.9,2.55-14.28,3.7l-4.12.91c-1.42.32-2.74.63-4.51.83-1.61.25-3.14.52-4.65.81l-4.46,1c-4.8,1.14-9.5,2.55-14.26,4.04h-21.56v470.64h-85.7v-470.64h-21.56c-4.76-1.48-9.46-2.89-14.26-4.04l-4.47-1c-1.5-.29-3.04-.56-4.65-.81-1.76-.2-3.08-.5-4.5-.83l-4.12-.91c-5.37-1.15-10.21-2.31-14.28-3.7-4.17-1.37-7.15-2.88-9.81-4.65-1.3-.86-2.43-1.75-3.28-2.57-.86-.81-1.43-1.53-1.91-2.1-.14-.14-.19-.29-.33-.43-.07-.04-.14-.05-.22-.11-.13-.11-.32-.31-.47-.59-.31-.56-.54-1.4-.64-2.27-.1-.88-.11-1.74-.03-2.62.11-.86.34-1.86,1.25-2.8.91-1,2.47-1.79,4.35-2.3,1.88-.45,4.03-.58,6.52-.08l1.48.3c.78.15,1.61.11,2.42-.16,2.47-.83,3.8-3.51,2.97-5.98-1.31-3.91-4.19-7.3-7.76-9.72-3.59-2.42-7.95-3.98-12.8-4.21-4.85-.21-10.18,1.03-14.67,3.74-4.53,2.66-8.22,6.49-10.81,10.86-2.63,4.37-4.21,9.3-4.67,14.55-.2,2.62-.13,5.34.32,8.07.22,1.36.53,2.75.92,4.09.4,1.21.78,2.45,1.28,3.61,1.19,2.91,2.74,5.55,4.48,7.96v20.23h13.83v41.74h-7.82l-60.75-.23c-1.22,0-1.37,1.77-.17,1.98l26.6,12.19v7.58h17.42v46.1c-2.32-.71-4.63-1.39-6.98-1.95-1.7-.41-3.41-.77-5.25-1.04-1.02-.11-1.78-.29-2.6-.48l-2.37-.51c-3.1-.67-5.89-1.34-8.23-2.15-2.4-.79-4.12-1.66-5.66-2.68-1.54-1-2.49-2.05-2.99-2.69-.08-.08-.11-.17-.19-.25-.02-.04-.08-.03-.12-.07-.06-.07-.21-.17-.28-.34-.16-.31-.33-.81-.37-1.3-.04-1.02-.26-1.97.71-3.12.53-.58,1.42-1.03,2.51-1.32,1.07-.25,2.34-.36,3.76-.05l.82.18c.47.1.97.08,1.46-.09,1.42-.49,2.17-2.04,1.67-3.46-.78-2.23-2.41-4.22-4.47-5.61-2.07-1.4-4.58-2.29-7.38-2.43-2.8-.12-5.87.61-8.45,2.16-2.6,1.54-4.72,3.75-6.23,6.26-1.52,2.52-2.43,5.36-2.67,8.39-.14,1.51-.09,3.08.16,4.65.13.78.33,1.59.53,2.36.23.7.45,1.42.74,2.08.84,2.06,2.03,3.83,3.32,5.45h-22.23c-1.22,0-1.37,1.77-.17,1.98l27.74,12.72v7.12h20.69v47.32h-52.87c-1.22,0-1.37,1.77-.17,1.98l21.53,9.87v9.91h22.06v35.19c-.69-.11-1.39-.22-2.08-.34-2.81-.46-5.61-.93-8.42-1.34-5.62-.88-11.24-1.67-16.9-2.38-2.83-.38-5.66-.69-8.55-.97-1.46-.14-2.87-.28-4.55-.37l-1.41-.02c-.39-.05-.7-.14-1.06-.21l-2.05-.46c-5.39-1.17-10.2-2.22-14.08-3.58-.96-.36-1.89-.68-2.74-1.06-.82-.35-1.55-.72-2.29-1.11-1.46-.78-2.76-1.65-3.8-2.49-.52-.41-.94-.84-1.34-1.2-.34-.39-.67-.71-.91-1.02-.53-.79-.7-.57-1.03-1.22-.3-.55-.52-1.47-.53-2.29-.05-.45-.02-.85.01-1.26.01-.47.11-.84.3-1.32.3-.96,1.43-1.93,3.1-2.56,1.68-.62,3.72-.87,6.11-.38l1.17.23c.61.12,1.26.09,1.9-.13,1.94-.65,2.98-2.75,2.32-4.69-1.28-3.81-4.4-6.93-8.19-8.86-3.79-1.92-8.57-2.72-13.49-1.52-4.88,1.13-9.39,4.19-12.44,8.07-1.6,1.92-2.77,4.1-3.73,6.38-.99,2.27-1.55,4.72-1.84,7.25-.29,2.52-.15,5.18.35,7.82l.47,1.99c.18.64.38,1.19.58,1.79.39,1.19.91,2.29,1.43,3.4,1,1.98,2.2,3.77,3.5,5.4h-13.87c-1.22,0-1.37,1.77-.17,1.98l32.22,14.77v4.77h7.49v92.65h-44.86c-1.22,0-1.37,1.43-.17,1.6l24.22,8.97v5.41h10.35v31.56c-2.73-.36-5.47-.66-8.26-.94-1.46-.14-2.87-.28-4.55-.37l-1.41-.02c-.39-.05-.7-.14-1.06-.21l-2.05-.46c-5.39-1.16-10.2-2.22-14.08-3.58-.96-.36-1.88-.68-2.74-1.06-.82-.35-1.55-.72-2.29-1.11-1.46-.78-2.76-1.65-3.8-2.49-.52-.41-.94-.84-1.34-1.2-.34-.39-.67-.71-.91-1.02-.53-.79-.7-.57-1.03-1.22-.3-.55-.52-1.47-.53-2.29-.05-.45-.02-.85.01-1.26,0-.47.11-.84.3-1.32.3-.96,1.43-1.94,3.1-2.56,1.68-.62,3.72-.87,6.11-.38l1.17.23c.61.12,1.26.09,1.9-.13,1.94-.65,2.98-2.75,2.32-4.69-1.28-3.81-4.4-6.93-8.19-8.86-3.79-1.92-8.57-2.72-13.49-1.52-4.88,1.13-9.39,4.19-12.44,8.07-1.6,1.92-2.77,4.1-3.73,6.38-.99,2.27-1.55,4.72-1.84,7.25-.29,2.52-.15,5.18.35,7.82l.47,1.99c.18.64.38,1.19.58,1.79.39,1.19.91,2.29,1.43,3.4,2.07,4.1,4.92,7.42,8.02,10.06l-14.01-.05c-1.22,0-1.37,1.31-.17,1.46l31.63,10.7v3.45h11.67v22.55h-209.46c1.28-5.61,3.28-11.05,6.1-16.07-1.46-1.03-3.48-.27-5.05.59-5.24,2.87-9.78,6.84-13.87,11.19-.01-5.04-.03-10.07-.04-15.11-8.3.61-13.31,12.31-21.2,14.95,1.61-5.15,3.22-10.29,4.83-15.44.2-.65.37-1.46-.14-1.92-.33-.3-.83-.32-1.28-.29-3.48.17-6.91,1.4-9.71,3.48-4.12,3.07-8.05,9.56-13.09,10.59,1.61-6.07,2.74-12.26,3.38-18.5-6.81,3.4-11.44,12.23-12.37,19.79-1.41-9.51-4.02-18.84-7.77-27.7-4.85,8.47-5.66,19.28-6.39,29.01-3.47-5.26-6.93-10.53-10.39-15.79-.35-.53-.74-1.1-1.33-1.33-1.62-.64-2.9,1.49-3.27,3.19-.93,4.34-.63,8.8-.15,13.21-1.47-1.54-3.18-2.84-5.01-3.92.52-.61,1.07-1.2,1.66-1.76,1.23-1.16,2.7-2.42,2.71-4.11-4.71,1.05-9.65,1.38-14.3,2.62-.78-.07-1.56-.11-2.34-.1.17.22.32.45.49.67-.44.15-.89.24-1.32.41.99-4.82,3.59-9.29,7.29-12.53,1.46-1.28,3.28-2.88,2.79-4.76-10.31,1.5-20.01,8.79-25.93,17.37-.35-6.65-2.48-13.2-6.1-18.79-1.43,5.68-3.99,12.59-5.43,18.28-3.64-7.99-11.92-13.66-20.68-14.16,4.91,4.09,7.97,10.83,8.61,17.19-4-2.73-8.04-5.48-12.52-7.32-4.48-1.84-9.5-2.73-14.21-1.59,5.06,6.21,10.13,12.43,15.19,18.64H-16.66v264.29h2221.83v-264.29h-214.08Zm-908.42-1.63c.28.54.53,1.09.79,1.63h-1.27c.14-.55.3-1.09.47-1.63Z"/>
      <g>
        <g>
          <path class="cls-5" d="m1536.5,301.22c-.18,1.51-.25,3.04-.09,4.55.26,2.42,1.13,4.78,2.52,6.78,1.32-6.49,3.19-12.86,5.59-19.03.82-2.1,3.59-6.96,2.73-9.29-1.21-3.27-3.36-.71-4.59.99-3.36,4.66-5.49,10.29-6.16,15.99Z"/>
          <polygon class="cls-5" points="1553.99 344.93 1649.59 344.93 1553.84 351.72 1553.99 344.93"/>
          <rect class="cls-5" x="1572.61" y="605.89" width="3.9" height="91.85"/>
          <polygon class="cls-5" points="1515.43 399.67 1644.1 399.67 1514.99 403.57 1515.43 399.67"/>
          <polygon class="cls-5" points="1487.7 469.85 1643.67 469.85 1489 473.32 1487.7 469.85"/>
          <polygon class="cls-5" points="1478.6 537 1642.8 537 1479.47 541.34 1478.6 537"/>
          <polygon class="cls-5" points="1430.08 597.66 1641.5 597.66 1433.11 602.86 1430.08 597.66"/>
          <polygon class="cls-5" points="1634.86 710.3 1418.24 710.3 1427.48 714.34 1634.86 710.3"/>
          <polygon class="cls-5" points="1389.35 764.02 1642.37 764.02 1396.29 770.38 1389.35 764.02"/>
          <path class="cls-5" d="m1410.17,548.61c-2.09,3.05-2.88,6.79-3.25,10.46-.15,1.52-.24,3.09.27,4.53.51,1.44,1.73,2.72,3.25,2.85,2.27.19,3.91-2.03,5.07-3.99,1.87-3.17,3.75-6.34,5.62-9.51,1.77-2.99,4.94-8.84-.39-10.07-3.86-.89-8.56,2.79-10.57,5.73Z"/>
          <polygon class="cls-5" points="1445.24 621.05 1557.88 621.05 1443.94 625.82 1445.24 621.05"/>
          <polygon class="cls-5" points="1425.75 744.53 1583.45 744.53 1424.45 739.76 1425.75 744.53"/>
        </g>
        <g>
          <path class="cls-5" d="m1848.13,301.22c.18,1.51.25,3.04.09,4.55-.26,2.42-1.13,4.78-2.52,6.78-1.32-6.49-3.19-12.86-5.59-19.03-.82-2.1-3.59-6.96-2.73-9.29,1.21-3.27,3.36-.71,4.59.99,3.36,4.66,5.49,10.29,6.16,15.99Z"/>
          <polygon class="cls-5" points="1830.65 344.93 1735.04 344.93 1830.79 351.72 1830.65 344.93"/>
          <rect class="cls-5" x="1808.12" y="605.89" width="3.9" height="91.85" transform="translate(3620.13 1303.63) rotate(180)"/>
          <polygon class="cls-5" points="1869.2 399.67 1740.53 399.67 1869.64 403.57 1869.2 399.67"/>
          <polygon class="cls-5" points="1896.93 469.85 1740.96 469.85 1895.63 473.32 1896.93 469.85"/>
          <polygon class="cls-5" points="1906.03 537 1741.83 537 1905.16 541.34 1906.03 537"/>
          <polygon class="cls-5" points="1954.55 597.66 1743.13 597.66 1951.52 602.86 1954.55 597.66"/>
          <polygon class="cls-5" points="1749.77 710.3 1966.39 710.3 1957.15 714.34 1749.77 710.3"/>
          <polygon class="cls-5" points="1995.28 764.02 1742.26 764.02 1988.35 770.38 1995.28 764.02"/>
          <path class="cls-5" d="m1974.46,548.61c2.09,3.05,2.88,6.79,3.25,10.46.15,1.52.24,3.09-.27,4.53-.51,1.44-1.74,2.72-3.25,2.85-2.27.19-3.91-2.03-5.07-3.99-1.87-3.17-3.75-6.34-5.62-9.51-1.77-2.99-4.94-8.84.39-10.07,3.86-.89,8.56,2.79,10.57,5.73Z"/>
          <polygon class="cls-5" points="1939.39 621.05 1826.75 621.05 1940.69 625.82 1939.39 621.05"/>
          <polygon class="cls-5" points="1958.89 744.53 1801.19 744.53 1960.18 739.76 1958.89 744.53"/>
        </g>
        <g>
          <path class="cls-5" d="m1174.63,821.84c5.68-1.74,11.85-2.09,17.77-.93,5.93,1.08,11.62,3.64,16.38,7.4l-.98-.02c7.01-5.35,15.17-9.09,23.65-11.34,8.51-2.18,17.44-2.7,26.05-1.38-8.69-.55-17.39.43-25.66,2.81-8.3,2.3-16.11,6.19-23.07,11.21l-.51.37-.48-.38c-4.52-3.65-9.93-6.18-15.61-7.54-5.7-1.29-11.72-1.49-17.53-.19Z"/>
          <path class="cls-5" d="m1369.71,825.83c7.52-.67,15.04-.83,22.56-.87,7.52.03,15.04.19,22.56.87-7.52.68-15.04.83-22.56.87-7.52-.03-15.04-.19-22.56-.87Z"/>
          <path class="cls-5" d="m1500.11,834.41c4.55-1.47,10.25,1.37,11.85,6.32l-1.45-.23c4.54-6.74,13.17-10.51,20.95-9.03-7.81.22-15.14,3.93-19.62,9.97l-1,1.35-.45-1.58c-1.16-4.08-5.59-7.24-10.29-6.8Z"/>
          <path class="cls-5" d="m1049.78,886.11c3.43-1.64,7.4-2.09,11.21-1.52,3.81.59,7.44,2.03,10.82,3.85,1.7.9,3.32,1.94,4.88,3.06,1.57,1.09,3,2.51,4.48,2.64,1.46.16,2.71-1.23,3.98-2.63,1.33-1.44,2.82-2.71,4.42-3.83,6.5-4.38,14.42-6.1,22.06-5.9,7.69.17,15.12,2.05,22.39,4.13-7.42-1.47-14.91-2.87-22.4-2.8-7.43.07-15.01,1.75-21.06,5.99-1.52,1.03-2.93,2.21-4.2,3.53-.64.67-1.29,1.42-2.14,2.06-.82.65-2.01,1.14-3.19,1.01-2.39-.36-3.71-2-5.21-3-1.51-1.09-3.04-2.16-4.65-3.11-3.2-1.9-6.66-3.43-10.31-4.17-3.63-.82-7.51-.69-11.06.69Z"/>
          <path class="cls-5" d="m663.82,807.35c7.55-.67,15.1-.83,22.65-.87,7.55.03,15.1.19,22.65.87-7.55.68-15.1.84-22.65.87-7.55-.04-15.1-.19-22.65-.87Z"/>
          <path class="cls-5" d="m705.26,847.84c1.67-.7,3.86-.33,5.3,1.07l-.78-.05c5.33-5.2,13.87-7.01,20.69-4.29-7.22-.7-14.2,1.11-19.96,5.16l-.47.33-.31-.38c-.98-1.22-2.67-2-4.47-1.84Z"/>
          <path class="cls-5" d="m38.8,807.35c12.52-.72,25.03-.76,37.55-.87,12.52.1,25.03.14,37.55.87-12.52.72-25.03.77-37.55.87-12.52-.1-25.03-.15-37.55-.87Z"/>
          <path class="cls-5" d="m112.74,833.92c3.47-.67,6.93-.83,10.4-.87,3.47.03,6.93.19,10.4.87-3.47.68-6.93.83-10.4.87-3.47-.03-6.93-.19-10.4-.87Z"/>
          <path class="cls-5" d="m28.4,907.86c6.57-.67,13.14-.83,19.72-.87,6.57.03,13.14.19,19.72.87-6.57.68-13.14.84-19.72.87-6.57-.04-13.14-.19-19.72-.87Z"/>
          <path class="cls-5" d="m106.97,905.52c3.34.4,6.53,2.42,8.54,5.27l-1.52.31c.39-2.32,1.54-4.48,3.1-6.19,1.61-1.66,3.63-2.94,5.85-3.36-1.89,1.17-3.51,2.59-4.72,4.3-1.26,1.66-2.12,3.57-2.57,5.57l-.44,1.97-1.08-1.66c-1.7-2.61-4.16-4.72-7.15-6.22Z"/>
        </g>
      </g>
    </g>
    <g>
      <path class="cls-9" d="m2092.84,971.42l-1.78-149.14c-13.64-4.22-23.37-16.12-35.85-23.06-25.26-14.06-60.11,9.74-85.89-3.32-56.95-28.85-129.16-22.24-180.69,15.45-29.81,1.69-59.88,5.13-87.91,15.42-17.2,6.32-33.65,15.15-47.44,26.88-.42-2.41-.5-4.88-.16-7.31.23-1.68.59-3.58-.46-4.9-3.71,4.63-8.45,8.58-11.38,13.74-2.24-4.38-3.01-9.49-2.15-14.33.34-1.92.76-4.3-.8-5.46-7.1,7.62-10.11,19.38-9.36,29.77-4.44-4.97-10.19-8.75-16.52-10.84,2.44,5.33,4.76,12.32,7.2,17.65-7.84-3.96-17.84-3.2-25,1.89,2.58.05,5.19.64,7.69,1.61-52.85,1.45-123.87,39.17-123.98,42.64-49.24-10.57-103.65,11.88-131.95,53.33h-336.25v-90.25c1.03-.12,2.11-.22,3.11-.34,1.83-.23,3.24-1.32,4-2.75,1.01-1.85.97-4.25-.55-6.1-12.2-14.84-40.99-35.72-48.67-41.18-1.22-.86-2.7-1.25-4.19-1.09l-26.11,2.72v-15.43h17.61c3.4,5.33,12.37,7.62,12.37,7.62v-7.62h.03v-8.19c1.41-.22,2.83-.45,4.17-.7,1.14-.22,2.02-1.27,2.5-2.63.63-1.77.61-4.06-.34-5.84-7.63-14.2-25.63-34.19-30.43-39.42-.76-.83-1.69-1.2-2.62-1.05l-12.14,1.94v-20.22c.75-.16,1.47-.34,2.16-.53,4.28-1.05,7.28-2.56,8.64-4.48.19-.29-1.24-1.59-3.22-3.11-2.22-1.7-4.99-3.57-7.15-4.79-10.78-6.11-18.8-9.96-20.13-10.6-.05-.03-1.06-.04-2.45-.05v-9.19c0-2.1-1.7-3.8-3.8-3.8s-3.8,1.7-3.8,3.8v9.19c-1.4.01-2.4.03-2.46.06-1.34.64-9.35,4.49-20.12,10.59-2.17,1.23-4.95,3.11-7.15,4.79-1.98,1.51-3.42,2.81-3.23,3.11,1.36,1.92,4.36,3.43,8.64,4.48.69.18,1.41.37,2.16.53v20.53l-12.12-2.22c-.95-.17-1.9.19-2.68,1.05-4.84,5.26-22.79,25.2-30.4,39.39-.95,1.77-.98,4.08-.34,5.84.48,1.37,1.35,2.41,2.49,2.63,1.37.26,2.81.48,4.25.71v5.82h-.06v9.98s8.97-2.28,12.37-7.62h17.64v15.86l-26.07-3.12c-1.52-.18-3.04.19-4.29,1.09-7.74,5.5-36.44,26.32-48.61,41.14-1.52,1.85-1.56,4.26-.55,6.1.76,1.43,2.15,2.52,3.98,2.75,1.01.12,2.09.22,3.12.34v90.25h-126.33v-16.21h1.55l5.34-6.15-4.06-3.52-3.74,4.3h-.84l-6.18-9.84h-5.16v-7.99h3.9v-2.3h-3.9v-3.13h-2.3v3.13h-3.9v2.3h3.9v7.99h-5.16l-6.18,9.84h-1.32l-3.27-3.76-4.06,3.52,4.88,5.61h2.02v16.21H170.69v-16.21h1.55l5.34-6.15-4.06-3.52-3.74,4.3h-.84l-6.18-9.84h-5.16v-7.99h3.9v-2.3h-3.9v-3.13h-2.3v3.13h-3.9v2.3h3.9v7.99h-5.16l-6.18,9.84h-1.32l-3.27-3.76-4.06,3.52,4.87,5.61h2.02v16.21H-66.34v196.38h2159.28v-196.38h-.1Zm-1093.12,0h-8.24v-21.31h-9.31v-37.98h4.07l4.34-10.31h-8.41v-10.67h.5c3.53,5.33,12.86,7.62,12.86,7.62v-7.62h.06v-8.59c1.41-.11,2.76-.24,4.14-.36v89.22Zm-193.53-89.21c1.4.12,2.77.25,4.21.36v6.22h-.07v9.98s9.33-2.28,12.86-7.62h.55v10.67h-8.41l4.34,10.31h4.07v37.98h-9.31v21.31h-8.24v-89.21Zm-133.45-11.03c-29.48-28.63-99.05-68.92-117.62-79.46-2.96-1.67-6.53-2.41-10.13-2.11l-23.11,1.92v-15.46h88.25c5.32,8.36,19.38,11.94,19.38,11.94v-11.94h0v-16.86c.55-.06,1.12-.11,1.66-.18,3.87-.44,6.85-2.55,8.45-5.3,2.14-3.57,2.05-8.19-1.16-11.77-25.81-28.63-86.71-68.92-102.96-79.46-2.59-1.67-5.71-2.41-8.87-2.11l-17.72,1.69v-18.05h68.45c5.32,8.36,19.38,11.94,19.38,11.94v-11.94h.08v-16.01c4.96-.5,9.82-1.02,14.51-1.6,3.54-.44,6.26-2.55,7.73-5.3,1.96-3.57,1.88-8.19-1.06-11.77-23.61-28.63-79.33-68.92-94.2-79.46-2.37-1.67-5.23-2.41-8.12-2.11l-24.05,2.5v-19.44h52.53c5.32,8.36,19.38,11.94,19.38,11.94v-11.94h.08v-15.73c5-.57,9.86-1.2,14.54-1.87,2.99-.44,5.29-2.55,6.53-5.3,1.66-3.57,1.59-8.19-.9-11.76-19.95-28.63-67.02-68.92-79.58-79.47-2-1.67-4.42-2.41-6.86-2.11l-27.28,3.36v-23.69h47.76c5.32,8.36,19.38,11.94,19.38,11.94v-11.94h.08v-15.95c.56-.08,1.16-.15,1.71-.23,2.34-.36,4.14-2.07,5.12-4.31,1.3-2.9,1.24-6.65-.7-9.55-15.62-23.25-52.47-55.96-62.31-64.52-1.57-1.35-3.46-1.96-5.37-1.71l-23.45,2.99v-22.91h27.59c5.32,8.36,19.38,11.94,19.38,11.94v-11.94h.05v-12.83c2.22-.35,4.43-.7,6.54-1.09,1.79-.34,3.17-1.98,3.92-4.12.99-2.78.95-6.37-.54-9.14-11.95-22.25-40.16-53.57-47.69-61.77-1.2-1.3-2.65-1.88-4.11-1.64l-19.03,3.04v-31.69c1.18-.25,2.3-.54,3.39-.83,6.71-1.65,11.4-4.01,13.54-7.02.3-.46-1.94-2.49-5.05-4.87-3.48-2.67-7.81-5.59-11.21-7.51-16.89-9.57-29.46-15.61-31.54-16.6-.08-.04-1.65-.07-3.84-.09v-14.4c0-3.29-2.66-5.95-5.95-5.95s-5.95,2.66-5.95,5.95v14.4c-2.19.02-3.76.05-3.85.09-2.1,1-14.65,7.03-31.52,16.59-3.4,1.92-7.76,4.87-11.21,7.51-3.1,2.37-5.35,4.41-5.05,4.87,2.14,3.01,6.83,5.37,13.54,7.02,1.09.29,2.21.58,3.39.83v32.17l-18.99-3.48c-1.49-.26-2.98.29-4.2,1.64-7.58,8.25-35.71,39.49-47.63,61.71-1.49,2.78-1.53,6.4-.54,9.14.74,2.14,2.11,3.78,3.9,4.12,2.14.4,4.4.76,6.65,1.11v9.12h-.1v15.63s14.06-3.58,19.38-11.94h27.64v23.39l-23.4-3.42c-1.95-.28-3.89.3-5.49,1.71-9.91,8.61-46.66,41.25-62.24,64.46-1.95,2.9-2,6.68-.7,9.55.97,2.24,2.76,3.95,5.1,4.31.59.09,1.23.16,1.83.24v12.23h-.1v15.63s14.06-3.58,19.38-11.94h47.84v24.24l-27.21-3.84c-2.48-.34-4.97.37-7.02,2.11-12.65,10.61-59.58,50.8-79.48,79.4-2.48,3.57-2.55,8.23-.9,11.76,1.24,2.75,3.52,4.86,6.51,5.3,4.69.68,9.56,1.3,14.57,1.88v12.04h0v15.62s14.06-3.58,19.38-11.94h52.61v19.86l-23.97-2.86c-2.94-.34-5.88.37-8.31,2.11-14.98,10.61-70.54,50.8-94.09,79.4-2.94,3.57-3.02,8.23-1.06,11.77,1.47,2.75,4.17,4.86,7.71,5.3,4.7.57,9.56,1.1,14.53,1.6v27.94s14.06-3.58,19.38-11.94h68.53v18.36l-17.63-1.92c-3.21-.34-6.43.37-9.08,2.11-16.37,10.61-77.09,50.8-102.84,79.4-3.21,3.57-3.3,8.23-1.16,11.77,1.61,2.75,4.55,4.86,8.42,5.3.55.06,1.13.12,1.69.18v28.79s14.06-3.58,19.38-11.94h88.25v15.8l-23-2.2c-3.67-.34-7.34.37-10.37,2.11-18.7,10.61-88.07,50.8-117.48,79.4-3.67,3.57-3.77,8.23-1.33,11.76,1.84,2.75,5.2,4.86,9.62,5.3,1.03.1,2.11.19,3.16.29v24.43s14.06-3.58,19.38-11.94h70.17v126.97h16.39v-126.97h33.46v6.8h-13.18l6.8,16.15h6.38v59.5h-14.59v44.49h14.59v.02h248.22v-.02h14.59v-44.49h-14.59v-59.5h6.38l6.8-16.15h-13.18v-6.8h33.46v126.97h16.39v-126.97h70.15c5.32,8.36,19.38,11.94,19.38,11.94v-11.94h.02v-12.5c1.03-.1,2.1-.19,3.12-.29,4.42-.44,7.82-2.55,9.66-5.3,2.45-3.57,2.35-8.19-1.33-11.76Zm-276.76,99.8h-38.68v-2.7c0-21.36,17.32-38.68,38.68-38.68v41.38Zm42.28,0h-38.68v-41.38h0c21.36,0,38.68,17.32,38.68,38.68v2.7Z"/>
      <g>
        <g>
          <path class="cls-3" d="m488.9,223.36c1.11,1.22,3.03-.22,2.16-1.61-10.55-16.96-29.45-46.01-35.57-46.93-6.45-.97-22.28,3.59-37.82,5.27-1.58.17-1.63,2.44-.06,2.67l39.13,5.85c.31.05.59.2.8.43l31.36,34.33Z"/>
          <path class="cls-3" d="m520.05,332.62c1.22,1.11,2.99-.5,2-1.81-12.09-15.9-33.61-43.07-39.79-43.41-6.52-.36-21.85,5.65-37.16,8.77-1.56.32-1.4,2.58.19,2.67l39.51,2.18c.31.02.6.14.83.35l34.42,31.25Z"/>
          <path class="cls-3" d="m535.47,452.61c1.14,1.18,3.02-.3,2.11-1.67-11.02-16.66-30.73-45.17-36.87-45.92-6.48-.79-22.17,4.22-37.66,6.33-1.57.21-1.56,2.48.02,2.67l39.28,4.75c.31.04.59.18.81.4l32.31,33.43Z"/>
          <path class="cls-3" d="m562.35,582.47c1.28,1.04,2.96-.65,1.9-1.91-12.91-15.24-35.83-41.24-42.02-41.26-6.53-.02-21.52,6.8-36.65,10.71-1.54.4-1.26,2.65.33,2.65l39.57.1c.31,0,.61.11.85.31l36.02,29.4Z"/>
          <path class="cls-3" d="m572.75,712.44c1.28,1.04,2.96-.65,1.9-1.91-12.91-15.24-35.83-41.24-42.02-41.26-6.53-.02-21.52,6.8-36.65,10.71-1.54.4-1.26,2.65.33,2.65l39.57.1c.31,0,.61.11.85.31l36.02,29.4Z"/>
          <path class="cls-3" d="m594.88,836.52c1.38.9,2.88-.96,1.69-2.1-14.44-13.81-39.95-37.25-46.12-36.62-6.49.67-20.69,9.02-35.32,14.5-1.49.56-.97,2.77.61,2.6l39.36-4.05c.31-.03.62.04.88.21l38.9,25.46Z"/>
          <polygon class="cls-3" points="299.03 245.29 497.74 245.29 300.47 249.62 299.03 245.29"/>
          <rect class="cls-3" x="345.24" y="256.26" width="104.56" height="3.47"/>
          <polygon class="cls-3" points="259.46 358.51 536.45 358.51 262.35 365.15 259.46 358.51"/>
          <rect class="cls-3" x="329.93" y="373.53" width="132.57" height="3.47"/>
          <polygon class="cls-3" points="236.06 495.41 554.35 495.41 238.95 502.63 236.06 495.41"/>
          <rect class="cls-3" x="307.12" y="509.56" width="181.67" height="3.47"/>
          <polygon class="cls-3" points="202.27 629.43 594.5 629.43 203.43 635.78 202.27 629.43"/>
          <rect class="cls-3" x="291.81" y="643.87" width="211.42" height="3.47"/>
          <polygon class="cls-3" points="169.92 759.98 626.85 759.98 172.23 768.07 169.92 759.98"/>
          <rect class="cls-3" x="279.1" y="775" width="238.57" height="3.47"/>
          <polygon class="cls-3" points="138.15 888.22 655.15 888.22 139.31 894.57 138.15 888.22"/>
        </g>
        <g>
          <path class="cls-3" d="m931.25,767.83c2.82-.39,5.71-.77,8.49-.18,3.87.82,7.16,3.46,9.5,6.65,2.34,3.19,3.83,6.9,5.19,10.61-4.26-.65-7.58-3.88-11-6.52-7.32-5.67-16.06-4.84-23.16-8.95,3.6-.74,7.32-1.11,10.98-1.61Z"/>
          <path class="cls-3" d="m958.4,837.15c2.82-.39,5.71-.77,8.49-.18,3.87.82,7.16,3.46,9.5,6.65,2.34,3.19,3.83,6.9,5.19,10.61-4.26-.65-7.58-3.88-11-6.52-7.32-5.67-16.06-4.84-23.16-8.95,3.6-.74,7.32-1.11,10.98-1.61Z"/>
        </g>
        <g>
          <path class="cls-3" d="m1900.59,820.23c9.03.61,18.32,1.27,26.49,5.17-13.79,2.06-26.57,10.12-34.36,21.67.27-4.27.55-8.54.82-12.81.07-1.15.11-2.42-.59-3.33-.66-.85-1.78-1.16-2.82-1.4-13.35-3.1-27.07-3.61-40.64-5.08-9.8-1.07-29.44-1.56-35.91-9.86,28.75-.4,58.3,3.71,87.02,5.64Z"/>
          <polygon class="cls-3" points="1486.4 921.72 1572.18 928.65 1605.11 913.06 1591.24 932.99 1606.84 960.71 1568.72 938.19 1486.4 921.72"/>
          <polygon class="cls-3" points="1893.65 904.39 1950.83 878.4 1890.18 922.59 1893.65 904.39"/>
        </g>
      </g>
    </g>
  </g>
</svg>